{
	"asset":{
		"generator":"Khronos glTF Blender I/O v4.3.47",
		"version":"2.0"
	},
	"scene":0,
	"scenes":[
		{
			"name":"Scene",
			"nodes":[
				0
			]
		}
	],
	"nodes":[
		{
			"mesh":0,
			"name":"inner",
			"rotation":[
				0,
				0.7071068286895752,
				0,
				0.7071068286895752
			]
		}
	],
	"materials":[
		{
			"doubleSided":true,
			"name":"Material.001",
			"pbrMetallicRoughness":{
				"baseColorFactor":[
					0.800000011920929,
					0.800000011920929,
					0.800000011920929,
					1
				],
				"metallicFactor":0,
				"roughnessFactor":0.08636364340782166
			}
		}
	],
	"meshes":[
		{
			"name":"Cylinder.004",
			"primitives":[
				{
					"attributes":{
						"POSITION":0,
						"NORMAL":1,
						"TEXCOORD_0":2
					},
					"indices":3,
					"material":0
				}
			]
		}
	],
	"accessors":[
		{
			"bufferView":0,
			"componentType":5126,
			"count":1187,
			"max":[
				0.03969188407063484,
				0.04743814840912819,
				0.03969188407063484
			],
			"min":[
				-0.03969188407063484,
				-0.042067933827638626,
				-0.03969188407063484
			],
			"type":"VEC3"
		},
		{
			"bufferView":1,
			"componentType":5126,
			"count":1187,
			"type":"VEC3"
		},
		{
			"bufferView":2,
			"componentType":5126,
			"count":1187,
			"type":"VEC2"
		},
		{
			"bufferView":3,
			"componentType":5123,
			"count":5952,
			"type":"SCALAR"
		}
	],
	"bufferViews":[
		{
			"buffer":0,
			"byteLength":14244,
			"byteOffset":0,
			"target":34962
		},
		{
			"buffer":0,
			"byteLength":14244,
			"byteOffset":14244,
			"target":34962
		},
		{
			"buffer":0,
			"byteLength":9496,
			"byteOffset":28488,
			"target":34962
		},
		{
			"buffer":0,
			"byteLength":11904,
			"byteOffset":37984,
			"target":34963
		}
	],
	"buffers":[
		{
			"byteLength":49888,
			"uri":"cup_inner.bin"
		}
	]
}
