{
	"asset":{
		"generator":"Khronos glTF Blender I/O v4.3.47",
		"version":"2.0"
	},
	"scene":0,
	"scenes":[
		{
			"name":"Scene",
			"nodes":[
				0,
				1
			]
		}
	],
	"nodes":[
		{
			"mesh":0,
			"name":"cup",
			"rotation":[
				0,
				0.7071068286895752,
				0,
				0.7071068286895752
			]
		},
		{
			"mesh":1,
			"name":"cup.001",
			"rotation":[
				0,
				0.7071068286895752,
				0,
				0.7071068286895752
			]
		}
	],
	"materials":[
		{
			"doubleSided":true,
			"name":"Material.001",
			"pbrMetallicRoughness":{
				"baseColorFactor":[
					0.800000011920929,
					0.800000011920929,
					0.800000011920929,
					1
				],
				"metallicFactor":0,
				"roughnessFactor":0.08636364340782166
			}
		},
		{
			"doubleSided":true,
			"name":"prit",
			"pbrMetallicRoughness":{
				"metallicFactor":0,
				"roughnessFactor":0.5
			}
		}
	],
	"meshes":[
		{
			"name":"Cylinder.002",
			"primitives":[
				{
					"attributes":{
						"POSITION":0,
						"NORMAL":1,
						"TEXCOORD_0":2
					},
					"indices":3,
					"material":0
				}
			]
		},
		{
			"name":"Cylinder.001",
			"primitives":[
				{
					"attributes":{
						"POSITION":4,
						"NORMAL":5,
						"TEXCOORD_0":6
					},
					"indices":7,
					"material":1
				}
			]
		}
	],
	"accessors":[
		{
			"bufferView":0,
			"componentType":5126,
			"count":2518,
			"max":[
				0.0397438108921051,
				0.04743814840912819,
				0.0397438108921051
			],
			"min":[
				-0.0397438108921051,
				-0.04750001057982445,
				-0.07541730254888535
			],
			"type":"VEC3"
		},
		{
			"bufferView":1,
			"componentType":5126,
			"count":2518,
			"type":"VEC3"
		},
		{
			"bufferView":2,
			"componentType":5126,
			"count":2518,
			"type":"VEC2"
		},
		{
			"bufferView":3,
			"componentType":5123,
			"count":12840,
			"type":"SCALAR"
		},
		{
			"bufferView":4,
			"componentType":5126,
			"count":825,
			"max":[
				0.039743807166814804,
				0.043116383254528046,
				0.039743807166814804
			],
			"min":[
				-0.039743807166814804,
				-0.04478691145777702,
				-0.03505105897784233
			],
			"type":"VEC3"
		},
		{
			"bufferView":5,
			"componentType":5126,
			"count":825,
			"type":"VEC3"
		},
		{
			"bufferView":6,
			"componentType":5126,
			"count":825,
			"type":"VEC2"
		},
		{
			"bufferView":7,
			"componentType":5123,
			"count":4536,
			"type":"SCALAR"
		}
	],
	"bufferViews":[
		{
			"buffer":0,
			"byteLength":30216,
			"byteOffset":0,
			"target":34962
		},
		{
			"buffer":0,
			"byteLength":30216,
			"byteOffset":30216,
			"target":34962
		},
		{
			"buffer":0,
			"byteLength":20144,
			"byteOffset":60432,
			"target":34962
		},
		{
			"buffer":0,
			"byteLength":25680,
			"byteOffset":80576,
			"target":34963
		},
		{
			"buffer":0,
			"byteLength":9900,
			"byteOffset":106256,
			"target":34962
		},
		{
			"buffer":0,
			"byteLength":9900,
			"byteOffset":116156,
			"target":34962
		},
		{
			"buffer":0,
			"byteLength":6600,
			"byteOffset":126056,
			"target":34962
		},
		{
			"buffer":0,
			"byteLength":9072,
			"byteOffset":132656,
			"target":34963
		}
	],
	"buffers":[
		{
			"byteLength":141728,
			"uri":"cup_print.bin"
		}
	]
}
