{
	"asset":{
		"generator":"Khronos glTF Blender I/O v4.3.47",
		"version":"2.0"
	},
	"scene":0,
	"scenes":[
		{
			"name":"Scene",
			"nodes":[
				0
			]
		}
	],
	"nodes":[
		{
			"mesh":0,
			"name":"cup",
			"rotation":[
				0,
				0.7071068286895752,
				0,
				0.7071068286895752
			]
		}
	],
	"materials":[
		{
			"doubleSided":true,
			"name":"Material.001",
			"pbrMetallicRoughness":{
				"baseColorFactor":[
					0.800000011920929,
					0.800000011920929,
					0.800000011920929,
					1
				],
				"metallicFactor":0,
				"roughnessFactor":0.08636364340782166
			}
		}
	],
	"meshes":[
		{
			"name":"Cylinder.002",
			"primitives":[
				{
					"attributes":{
						"POSITION":0,
						"NORMAL":1,
						"TEXCOORD_0":2
					},
					"indices":3,
					"material":0
				}
			]
		}
	],
	"accessors":[
		{
			"bufferView":0,
			"componentType":5126,
			"count":1117,
			"max":[
				0.0397438108921051,
				0.04688207060098648,
				0.0397438108921051
			],
			"min":[
				-0.0397438108921051,
				-0.04750001057982445,
				-0.04515642672777176
			],
			"type":"VEC3"
		},
		{
			"bufferView":1,
			"componentType":5126,
			"count":1117,
			"type":"VEC3"
		},
		{
			"bufferView":2,
			"componentType":5126,
			"count":1117,
			"type":"VEC2"
		},
		{
			"bufferView":3,
			"componentType":5123,
			"count":5316,
			"type":"SCALAR"
		}
	],
	"bufferViews":[
		{
			"buffer":0,
			"byteLength":13404,
			"byteOffset":0,
			"target":34962
		},
		{
			"buffer":0,
			"byteLength":13404,
			"byteOffset":13404,
			"target":34962
		},
		{
			"buffer":0,
			"byteLength":8936,
			"byteOffset":26808,
			"target":34962
		},
		{
			"buffer":0,
			"byteLength":10632,
			"byteOffset":35744,
			"target":34963
		}
	],
	"buffers":[
		{
			"byteLength":46376,
			"uri":"cup.bin"
		}
	]
}
