<!DOCTYPE svg PUBLIC "-//W3C//DTD SVG 1.1//EN" "http://www.w3.org/Graphics/SVG/1.1/DTD/svg11.dtd">
<!-- Uploaded to: SVG Repo, www.svgrepo.com, Transformed by: SVG Repo Mixer Tools -->
<svg width="172px" height="172px" viewBox="-2.56 -2.56 21.12 21.12" xmlns="http://www.w3.org/2000/svg" fill="none" stroke="#000000" stroke-width="0.192">
<g id="SVGRepo_bgCarrier" stroke-width="0"/>
<g id="SVGRepo_tracerCarrier" stroke-linecap="round" stroke-linejoin="round"/>
<g id="SVGRepo_iconCarrier"> <g fill="#000000"> <path d="M2.25 0A2.25 2.25 0 000 2.25v7.5A2.25 2.25 0 002.25 12h.25a.75.75 0 000-1.5h-.25a.75.75 0 01-.75-.75v-7.5a.75.75 0 01.75-.75h7.5a.75.75 0 01.75.75v.25a.75.75 0 001.5 0v-.25A2.25 2.25 0 009.75 0h-7.5z"/> <path fill-rule="evenodd" d="M6.25 4A2.25 2.25 0 004 6.25v7.5A2.25 2.25 0 006.25 16h7.5A2.25 2.25 0 0016 13.75v-7.5A2.25 2.25 0 0013.75 4h-7.5zM5.5 6.25a.75.75 0 01.75-.75h7.5a.75.75 0 01.75.75v7.5a.75.75 0 01-.75.75h-7.5a.75.75 0 01-.75-.75v-7.5z" clip-rule="evenodd"/> </g> </g>
</svg>